<svg width="156" height="40" viewBox="0 0 156 40" fill="none" xmlns="http://www.w3.org/2000/svg">
<path d="M19.5918 20.0369L19.5595 21.476L17.7843 21.5498C17.5261 23.2718 17.1065 24.6617 16.5256 25.7196C15.9661 26.7774 15.0193 27.9213 13.6852 29.1513C12.3511 30.3813 10.7481 31.4022 8.87603 32.214C7.02551 33.0504 5.47624 33.4686 4.22822 33.4686C2.98019 33.4686 2.03342 33.1734 1.38789 32.583C0.742359 32.0172 0.419594 31.2669 0.419594 30.3321C0.419594 28.9053 1.15119 27.4785 2.61439 26.0517C4.09911 24.6002 5.88508 23.3948 7.97229 22.4354C10.081 21.4514 12.1682 20.7872 14.2339 20.4428C13.9112 19.8278 13.4163 19.3235 12.7492 18.9299C12.1037 18.5363 10.9955 18.0935 9.42473 17.6015C8.56402 17.3309 8.13367 16.8881 8.13367 16.2731C8.13367 15.9041 8.26278 15.572 8.52099 15.2768C8.80072 14.9569 9.25259 14.5879 9.8766 14.1697C10.5221 13.7269 11.1246 13.2841 11.6841 12.8413C12.2651 12.3739 12.8998 11.8204 13.5884 11.1808C14.2985 10.5412 14.8902 9.877 15.3636 9.18819C15.837 8.49938 16.0737 7.89668 16.0737 7.38007C16.0737 6.51907 15.6971 6.08856 14.944 6.08856C14.363 6.08856 13.5669 6.40836 12.5555 7.04797C11.5657 7.66298 10.5867 8.46248 9.61839 9.44649L8.2305 14.4649C7.26221 17.9828 6.18632 20.7134 5.00285 22.6568C3.8409 24.6002 2.73274 25.572 1.67838 25.572C0.559459 25.572 0 24.7847 0 23.2103C0 21.6359 0.667047 19.631 2.00114 17.1956C3.33524 14.7355 5.18575 12.214 7.55269 9.631C7.55269 9.6064 7.60649 9.38499 7.71408 8.96679C7.84318 8.52398 7.96153 8.08118 8.06912 7.63838C8.43492 6.30996 8.71465 5.46125 8.90831 5.09225L10.4899 5.38745C10.4899 5.85486 10.4038 6.40836 10.2316 7.04797C11.4366 6.01476 12.7062 5.11685 14.0403 4.35424C15.3959 3.56704 16.3857 3.17343 17.0097 3.17343C17.6552 3.17343 18.1717 3.40713 18.559 3.87454C18.9463 4.31734 19.1399 4.98155 19.1399 5.86716C19.1399 6.72817 18.7741 7.72448 18.0425 8.85609C17.3325 9.9877 16.4395 11.0086 15.3636 11.9188C13.4055 13.5916 11.7379 14.797 10.3607 15.5351C12.5986 15.9287 14.2339 16.4576 15.2668 17.1218C16.2996 17.7614 17.0527 18.7331 17.5261 20.0369H19.5918ZM3.90545 20.8856C5.41169 18.1058 6.41226 15.2522 6.90717 12.3247C5.74521 13.7761 4.69085 15.4367 3.74407 17.3063C2.79729 19.1759 2.32391 20.5289 2.32391 21.3653C2.32391 21.8819 2.47453 22.1402 2.77578 22.1402C3.09854 22.1402 3.4751 21.722 3.90545 20.8856ZM11.3936 28.7823C12.448 27.9705 13.2871 27.0603 13.9112 26.0517C14.5352 25.043 14.8472 24.0959 14.8472 23.2103C14.8472 22.7921 14.7934 22.3739 14.6858 21.9557C11.4581 22.3985 8.80072 23.3702 6.71351 24.8708C4.62629 26.3469 3.58269 27.7614 3.58269 29.1144C3.58269 29.7048 3.78711 30.1722 4.19594 30.5166C4.60478 30.8856 5.16424 31.0701 5.87432 31.0701C7.61725 31.0701 9.45701 30.3075 11.3936 28.7823Z" fill="#2D2D2D"/>
<path d="M29.92 22.3616L30.6624 23.0258C29.9953 24.0836 29.0808 24.9692 27.9189 25.6827C26.7569 26.3715 25.6273 26.7159 24.5299 26.7159C23.4325 26.7159 22.5502 26.3469 21.8832 25.6089C21.2161 24.8708 20.8826 23.8991 20.8826 22.6937C20.8826 20.4305 21.9262 18.2042 24.0134 16.0148C26.1222 13.8253 28.2524 12.7306 30.4042 12.7306C31.8243 12.7306 32.5344 13.3702 32.5344 14.6494C32.5344 15.9779 31.7813 17.3186 30.2751 18.6716C28.7904 20.0246 26.6924 21.2546 23.9812 22.3616C24.1748 22.9274 24.4761 23.3702 24.8849 23.69C25.2937 24.0098 25.7133 24.1697 26.1437 24.1697C27.0689 24.1697 28.3277 23.567 29.92 22.3616ZM23.8198 21.2546C25.5627 20.5658 27.0582 19.7048 28.3062 18.6716C29.5542 17.6384 30.1782 16.6913 30.1782 15.8303C30.1782 15.5105 30.0707 15.2276 29.8555 14.9815C29.6403 14.7355 29.3929 14.6125 29.1131 14.6125C28.1018 14.6125 27.0044 15.3383 25.8209 16.7897C24.659 18.2165 23.9919 19.7048 23.8198 21.2546Z" fill="#2D2D2D"/>
<path d="M45.8558 22.9889L46.5981 23.6162C46.2969 24.3542 45.7374 25.0553 44.9198 25.7196C44.1236 26.3838 43.392 26.7159 42.725 26.7159C41.4554 26.7159 40.8207 25.9533 40.8207 24.428C40.8207 23.7146 40.982 22.8659 41.3048 21.8819L40.1106 23.2841C38.9486 24.6371 37.9373 25.5474 37.0766 26.0148C36.2374 26.4822 35.409 26.7159 34.5913 26.7159C33.7736 26.7159 33.1496 26.4576 32.7193 25.941C32.3104 25.3998 32.106 24.6617 32.106 23.7269C32.106 22.0049 32.687 20.3075 33.8489 18.6347C35.0109 16.9373 36.4956 15.5597 38.3031 14.5018C40.1106 13.444 41.9181 12.9028 43.7255 12.8782L43.7901 14.0959L42.4345 14.428C40.4764 14.92 38.7442 15.9041 37.238 17.3801C35.7533 18.8561 35.0109 20.3321 35.0109 21.8081C35.0109 23.2595 35.5273 23.9852 36.5602 23.9852C37.5285 23.9852 38.7227 23.2103 40.1429 21.6605C41.563 20.1107 42.7465 18.2903 43.6933 16.1993L45.0489 17.1218C43.7148 20.1968 43.0477 22.1525 43.0477 22.9889C43.0477 23.3333 43.1446 23.6285 43.3382 23.8745C43.5534 24.0959 43.7578 24.2066 43.9515 24.2066C44.1667 24.2066 44.3065 24.1943 44.3711 24.1697C44.4356 24.1451 44.5002 24.1205 44.5647 24.0959C44.6293 24.0467 44.7046 23.9852 44.7907 23.9114C44.8983 23.8376 44.9843 23.7638 45.0489 23.69C45.1349 23.6162 45.2641 23.5055 45.4362 23.3579C45.6083 23.2103 45.7482 23.0873 45.8558 22.9889Z" fill="#2D2D2D"/>
<path d="M60.0816 22.6568L60.7594 23.2841C60.3936 24.3173 59.8127 25.1907 59.0165 25.9041C58.2419 26.6175 57.5318 26.9742 56.8863 26.9742C56.2623 26.9742 55.7674 26.7282 55.4016 26.2362C55.0358 25.7196 54.8529 25.0553 54.8529 24.2435C54.8529 23.4317 54.9712 22.3862 55.2079 21.107C54.1966 22.9274 53.1099 24.3542 51.948 25.3875C50.786 26.4207 49.807 26.9373 49.0108 26.9373C47.8058 26.9373 47.2033 25.9533 47.2033 23.9852C47.2033 22.3124 47.6982 20.1722 48.688 17.5646C49.6779 14.957 50.3987 13.444 50.8506 13.0258L52.3998 13.8007C51.5176 15.4244 50.8506 17.0234 50.3987 18.5978C49.9468 20.1722 49.7209 21.23 49.7209 21.7712C49.7209 22.2878 49.8608 22.706 50.1405 23.0258C50.4417 23.3456 50.786 23.5055 51.1733 23.5055C52.034 23.5055 53.0992 22.6076 54.3687 20.8118C55.6598 18.9914 56.9723 16.2854 58.3064 12.6937L59.9525 13.5424C59.9095 13.7392 59.4146 15.1661 58.4678 17.8229C57.5426 20.4797 57.0799 22.0787 57.0799 22.6199C57.0799 23.1365 57.1768 23.5301 57.3704 23.8007C57.5856 24.0713 57.79 24.2066 57.9837 24.2066C58.1988 24.2066 58.3602 24.1943 58.4678 24.1697C58.5754 24.1451 58.683 24.0959 58.7906 24.0221C58.8982 23.9483 58.9842 23.8868 59.0488 23.8376C59.1349 23.7884 59.2317 23.7023 59.3393 23.5793L59.5975 23.321C59.6405 23.2472 59.7158 23.1365 59.8234 22.9889C59.9525 22.8167 60.0386 22.706 60.0816 22.6568Z" fill="#2D2D2D"/>
<path d="M68.907 22.583L69.6171 23.5055C69.0791 24.4649 68.4228 25.2153 67.6482 25.7565C66.8951 26.2977 66.1312 26.5683 65.3566 26.5683C64.5819 26.5683 63.9687 26.3223 63.5168 25.8303C63.0649 25.3137 62.839 24.6125 62.839 23.7269C62.839 21.6605 63.5168 18.8069 64.8724 15.1661C63.775 15.3629 62.6776 15.6581 61.5802 16.0517L61.3543 14.6125L61.322 14.5756C62.3979 14.059 63.8073 13.6408 65.5502 13.321C65.7224 12.952 66.1097 12.0541 66.7122 10.6273C67.9172 7.79828 68.7779 5.96556 69.2943 5.12915L70.6822 5.75646C70.467 6.29766 70.0905 7.20787 69.5525 8.48709C69.0146 9.7417 68.4121 11.1685 67.745 12.7675C68.7133 12.6937 69.4772 12.6568 70.0367 12.6568C70.5961 12.6568 71.0265 12.7552 71.3277 12.952V14.5387C71.0265 14.4649 70.5854 14.428 70.0044 14.428C69.4449 14.428 68.4336 14.5387 66.9704 14.7601C65.7009 18.0074 65.0661 20.369 65.0661 21.845C65.0661 22.4108 65.2167 22.8782 65.518 23.2472C65.8407 23.6162 66.2603 23.8007 66.7767 23.8007C67.3147 23.8007 68.0248 23.3948 68.907 22.583Z" fill="#2D2D2D"/>
<path d="M85.2737 24.3911L85.3705 25.3506C85.2844 25.4244 84.2839 25.8672 82.3688 26.679C82.1106 28.3026 81.7771 29.9016 81.3682 31.476C80.9809 33.075 80.5828 34.2804 80.174 35.0923C79.7867 35.9287 79.3241 36.7528 78.7861 37.5646C77.7102 39.1882 76.2578 40 74.4288 40C73.525 40 72.8042 39.6802 72.2663 39.0406C71.7283 38.401 71.4594 37.5277 71.4594 36.4207C71.4594 32.1648 74.5794 28.7454 80.8195 26.1624L82.5625 19.1513C80.7119 22.3247 79.0443 24.2804 77.5596 25.0184C76.828 25.4121 76.0534 25.6089 75.2357 25.6089C74.4395 25.6089 73.794 25.3137 73.2991 24.7232C72.8257 24.1328 72.589 23.2718 72.589 22.1402C72.589 21.0086 72.9225 19.4342 73.5896 17.417C74.2782 15.3752 75.042 13.6654 75.8812 12.2878L77.4628 13.0627C77.3982 13.1365 77.097 13.7884 76.559 15.0184C75.6123 17.2571 75.1389 18.9176 75.1389 20C75.1389 21.0824 75.3218 21.8081 75.6876 22.1771C76.0534 22.5461 76.5913 22.7306 77.3014 22.7306C78.0115 22.7306 78.8076 22.2509 79.6898 21.2915C80.5936 20.3075 81.9815 18.3764 83.8535 15.4982L85.0155 16.2731C84.8433 17.0849 84.456 18.5609 83.8535 20.7011C83.2725 22.8167 82.8745 24.4403 82.6593 25.572L85.2737 24.3911ZM80.6259 27.2694C79.2703 27.9828 78.076 28.7946 77.0432 29.7048C75.1066 31.3776 74.1383 33.0012 74.1383 34.5756C74.1383 35.166 74.2889 35.6458 74.5902 36.0148C74.8914 36.3838 75.268 36.5683 75.7198 36.5683C77.8716 36.5683 79.507 33.4686 80.6259 27.2694Z" fill="#2D2D2D"/>
<path d="M125.963 3.21033L127.415 4.02214C125.973 7.24477 124.478 11.3899 122.929 16.4576C123.919 16.4576 124.596 16.5068 124.962 16.6052L124.833 18.7085C124.381 18.8807 123.499 18.9668 122.186 18.9668C121.734 20.3936 121.466 21.5498 121.379 22.4354C121.293 23.321 121.218 24.182 121.154 25.0184C121.11 25.8549 121.078 26.4207 121.057 26.7159H119.249C119.142 26.2977 119.088 25.8672 119.088 25.4244C119.088 23.8991 119.443 21.7466 120.153 18.9668C118.862 18.9668 116.904 19.139 114.279 19.4834C114.171 19.877 113.902 20.615 113.472 21.6974C113.041 22.7552 112.611 23.6777 112.181 24.4649C111.772 25.2522 111.212 26.1132 110.502 27.048C109.792 27.9828 109.05 28.77 108.275 29.4096C106.059 31.23 103.907 32.1402 101.82 32.1402C100.959 32.1402 100.249 31.8327 99.6897 31.2177C99.1302 30.6027 98.8505 29.8278 98.8505 28.893C98.8505 26.5314 100.034 24.3911 102.401 22.4723C104.789 20.5289 108.092 18.9791 112.31 17.8229C113.902 12.5092 116.14 8.72079 119.023 6.45756C115.903 6.50676 113.332 7.10947 111.309 8.26568C109.287 9.4219 108.275 10.8979 108.275 12.6937C108.275 13.2595 108.351 13.7515 108.501 14.1697C108.652 14.5633 109.007 15.1907 109.566 16.0517L108.469 17.2325C107.522 16.5437 106.801 15.7073 106.306 14.7232C105.811 13.7392 105.564 12.7921 105.564 11.8819C105.564 10.3567 106.274 8.95449 107.694 7.67528C109.114 6.37146 110.879 5.37515 112.988 4.68635C115.096 3.97294 117.237 3.61624 119.411 3.61624C120.508 3.61624 121.261 3.71464 121.67 3.91144C122.1 4.08364 122.315 4.42804 122.315 4.94465C122.315 5.43665 122.003 5.90406 121.379 6.34686C118.69 8.26568 116.527 11.9065 114.892 17.2694C116.161 17.0234 118.13 16.7528 120.798 16.4576C121.831 13.0135 122.66 10.4674 123.284 8.81919C123.929 7.14637 124.822 5.27675 125.963 3.21033ZM104.402 29.5941C105.198 29.5941 106.123 29.1882 107.178 28.3764C108.254 27.5892 109.147 26.556 109.857 25.2768C110.588 23.9729 111.212 22.1894 111.729 19.9262C108.867 20.4674 106.554 21.4268 104.789 22.8044C103.046 24.1574 102.175 25.695 102.175 27.417C102.175 28.1058 102.347 28.6347 102.691 29.0037C103.057 29.3973 103.627 29.5941 104.402 29.5941Z" fill="#2D2D2D"/>
<path d="M141.655 22.6568L142.333 23.2841C141.967 24.3173 141.386 25.1907 140.59 25.9041C139.816 26.6175 139.106 26.9742 138.46 26.9742C137.836 26.9742 137.341 26.7282 136.975 26.2362C136.609 25.7196 136.427 25.0553 136.427 24.2435C136.427 23.4317 136.545 22.3862 136.782 21.107C135.77 22.9274 134.684 24.3542 133.522 25.3875C132.36 26.4207 131.381 26.9373 130.585 26.9373C129.38 26.9373 128.777 25.9533 128.777 23.9852C128.777 22.3124 129.272 20.1722 130.262 17.5646C131.252 14.957 131.972 13.444 132.424 13.0258L133.974 13.8007C133.091 15.4244 132.424 17.0234 131.972 18.5978C131.521 20.1722 131.295 21.23 131.295 21.7712C131.295 22.2878 131.434 22.706 131.714 23.0258C132.015 23.3456 132.36 23.5055 132.747 23.5055C133.608 23.5055 134.673 22.6076 135.942 20.8118C137.234 18.9914 138.546 16.2854 139.88 12.6937L141.526 13.5424C141.483 13.7392 140.988 15.1661 140.042 17.8229C139.116 20.4797 138.654 22.0787 138.654 22.6199C138.654 23.1365 138.75 23.5301 138.944 23.8007C139.159 24.0713 139.364 24.2066 139.557 24.2066C139.773 24.2066 139.934 24.1943 140.042 24.1697C140.149 24.1451 140.257 24.0959 140.364 24.0221C140.472 23.9483 140.558 23.8868 140.623 23.8376C140.709 23.7884 140.805 23.7023 140.913 23.5793L141.171 23.321C141.214 23.2472 141.29 23.1365 141.397 22.9889C141.526 22.8167 141.612 22.706 141.655 22.6568Z" fill="#2D2D2D"/>
<path d="M148.609 16.5683C149.642 15.3629 150.545 14.5387 151.32 14.0959C152.116 13.6285 152.858 13.3948 153.547 13.3948C154.257 13.3948 154.838 13.6777 155.29 14.2435C155.763 14.7847 156 15.4982 156 16.3838C156 18.6716 155.161 21.0824 153.482 23.6162C151.804 26.1255 149.997 27.3801 148.06 27.3801C147.479 27.3801 146.93 27.2571 146.414 27.0111L147.189 25.3875C147.533 25.4859 147.802 25.5351 147.995 25.5351C149.308 25.5351 150.502 24.6986 151.578 23.0258C152.654 21.353 153.192 19.7048 153.192 18.0812C153.192 17.5646 153.041 17.1464 152.74 16.8266C152.46 16.4822 152.095 16.31 151.643 16.31C150.653 16.31 149.491 17.2202 148.157 19.0406C146.844 20.861 145.693 23.2349 144.703 26.1624L142.734 25.2399C143.38 21.476 144.671 16.8881 146.608 11.476C148.544 6.06396 150.158 2.23862 151.449 0L153.095 0.664207C151.675 3.69004 150.158 7.44158 148.544 11.9188C146.952 16.3961 146.016 19.4342 145.736 21.0332C146.618 19.262 147.576 17.7737 148.609 16.5683Z" fill="#2D2D2D"/>
</svg>
