<svg width="62" height="44" viewBox="0 0 62 44" fill="none" xmlns="http://www.w3.org/2000/svg">
<path d="M6.37583 15.6779V20.5191H0V0.480917H9.08556C10.892 0.480917 12.3585 0.737406 13.4849 1.25038C14.6113 1.74199 15.4295 2.53283 15.9396 3.6229C16.4709 4.71298 16.7366 6.13435 16.7366 7.88702C16.7366 10.5374 16.1521 12.5038 14.9832 13.7863C13.8143 15.0473 12.0078 15.6779 9.56375 15.6779H6.37583ZM6.37583 11.029H8.79865C9.26621 11.029 9.585 10.9328 9.75503 10.7405C9.9463 10.5481 10.0419 10.1954 10.0419 9.68244V7.11756C10.0419 6.60458 9.9463 6.25191 9.75503 6.05954C9.585 5.86718 9.26621 5.77099 8.79865 5.77099H6.37583V11.029Z" fill="#00B4ED"/>
<path d="M27.5705 14.716V20.5191H21.1947V0.480917H30.4396C32.2461 0.480917 33.7126 0.737406 34.839 1.25038C35.9653 1.74199 36.7836 2.53283 37.2936 3.6229C37.825 4.71298 38.0906 6.13435 38.0906 7.88702C38.0906 10.2168 37.5062 11.9374 36.3373 13.0489C35.1896 14.1603 33.3831 14.716 30.9178 14.716H27.5705ZM27.5705 10.0672H30.1527C30.6203 10.0672 30.9391 9.97099 31.1091 9.77863C31.3004 9.58626 31.396 9.23359 31.396 8.72061V7.11756C31.396 6.60458 31.3004 6.25191 31.1091 6.05954C30.9391 5.86718 30.6203 5.77099 30.1527 5.77099H27.5705V10.0672ZM34.042 10.2275L38.8876 20.5191H31.9698L28.6863 13.4977L34.042 10.2275Z" fill="#00B4ED"/>
<path d="M42.8725 10.516C42.8725 8.52824 43.0319 6.86107 43.3507 5.5145C43.6695 4.16794 44.1902 3.08855 44.9128 2.27634C45.6566 1.46412 46.6449 0.887023 47.8775 0.545039C49.1102 0.18168 50.6298 0 52.4362 0C54.2427 0 55.7623 0.18168 56.995 0.545039C58.2276 0.887023 59.2053 1.46412 59.9279 2.27634C60.6717 3.08855 61.203 4.16794 61.5218 5.5145C61.8406 6.86107 62 8.52824 62 10.516C62 12.5038 61.8406 14.171 61.5218 15.5176C61.203 16.8427 60.6717 17.9114 59.9279 18.7237C59.2053 19.5359 58.2276 20.1237 56.995 20.487C55.7623 20.829 54.2427 21 52.4362 21C50.6298 21 49.1102 20.829 47.8775 20.487C46.6449 20.1237 45.6566 19.5359 44.9128 18.7237C44.1902 17.9114 43.6695 16.8427 43.3507 15.5176C43.0319 14.171 42.8725 12.5038 42.8725 10.516ZM49.7265 15.5176H52.6275C53.5839 15.5176 54.2427 15.4 54.604 15.1649C54.9653 14.9084 55.146 14.4595 55.146 13.8183V5.48244H52.2131C51.278 5.48244 50.6298 5.61069 50.2685 5.86718C49.9072 6.10229 49.7265 6.54046 49.7265 7.18168V15.5176Z" fill="#00B4ED"/>
<path d="M0 23H6.27771L7.94131 37.5488H8.2238L10.3896 23H15.0037L11.959 44H2.60525L0 23ZM27.5905 23L24.9853 44H15.6315L12.5868 23H17.2009L19.3667 37.5488H19.6492L21.3128 23H27.5905Z" fill="#DB78FE"/>
<path d="M35.8994 35.936V38.456H43.2757V44H29.6217V23H43.4327L42.648 28.544H35.8994V31.064H42.1771V35.936H35.8994Z" fill="#DB78FE"/>
<path d="M45.6152 23H54.5295C56.8313 23 58.4845 23.4368 59.4889 24.3104C60.5143 25.184 61.027 26.5952 61.027 28.544C61.027 29.5296 60.8282 30.4592 60.4306 31.3328C60.033 32.2064 59.4994 32.8448 58.8298 33.248V33.4496C59.7296 33.6736 60.4829 34.2336 61.0897 35.1296C61.6966 36.0032 62 36.9888 62 38.0864C62 39.9904 61.4455 41.4576 60.3364 42.488C59.2483 43.496 57.6788 44 55.6281 44H45.6152V23ZM51.8929 41.8496L49.3504 39.128H54.1529C54.676 39.128 55.0317 39.0048 55.2201 38.7584C55.4293 38.4896 55.534 38.0416 55.534 37.4144C55.534 36.7648 55.4398 36.3168 55.2515 36.0704C55.0631 35.824 54.7074 35.7008 54.1842 35.7008H51.3907V30.9968H53.4309C53.9541 30.9968 54.2993 30.896 54.4667 30.6944C54.6551 30.4704 54.7492 30.0448 54.7492 29.4176C54.7492 28.7904 54.6655 28.376 54.4981 28.1744C54.3307 27.9728 53.975 27.872 53.4309 27.872H49.3504L51.8929 25.1504V41.8496Z" fill="#DB78FE"/>
</svg>
