<svg width="839" height="545" viewBox="0 0 839 545" fill="none" xmlns="http://www.w3.org/2000/svg">
<path d="M38.7499 274.285H4.52921C3.29905 274.285 2.23665 273.838 1.34199 272.944C0.447329 272.051 0 270.99 0 269.761V161.524C0 160.295 0.447329 159.234 1.34199 158.34C2.23665 157.447 3.29905 157 4.52921 157H38.7499C39.9801 157 41.0425 157.447 41.9371 158.34C42.8318 159.234 43.2791 160.295 43.2791 161.524V269.761C43.2791 270.99 42.8318 272.051 41.9371 272.944C41.0425 273.838 39.9801 274.285 38.7499 274.285Z" fill="#232322"/>
<path d="M92.2106 157H190.511C191.741 157 192.804 157.447 193.698 158.34C194.593 159.234 195.04 160.295 195.04 161.524V188.499C195.04 189.728 194.593 190.789 193.698 191.683C192.804 192.576 191.741 193.023 190.511 193.023H162.665V269.761C162.665 270.99 162.218 272.051 161.323 272.944C160.428 273.838 159.366 274.285 158.136 274.285H124.586C123.356 274.285 122.293 273.838 121.399 272.944C120.504 272.051 120.057 270.99 120.057 269.761V193.023H92.2106C90.9804 193.023 89.918 192.576 89.0233 191.683C88.1287 190.789 87.6814 189.728 87.6814 188.499V161.524C87.6814 160.295 88.1287 159.234 89.0233 158.34C89.918 157.447 90.9804 157 92.2106 157Z" fill="#232322"/>
<path d="M137.567 375.652H189.233C190.464 375.652 191.526 376.099 192.421 376.993C193.315 377.886 193.763 378.947 193.763 380.176V403.801C193.763 405.029 193.315 406.091 192.421 406.984C191.526 407.878 190.464 408.324 189.233 408.324H101.836C100.606 408.324 99.5439 407.878 98.6492 406.984C97.7546 406.091 97.3072 405.029 97.3072 403.801V295.564C97.3072 294.335 97.7546 293.274 98.6492 292.38C99.5439 291.487 100.606 291.04 101.836 291.04H187.891C189.122 291.04 190.184 291.487 191.079 292.38C191.973 293.274 192.421 294.335 192.421 295.564V319.188C192.421 320.417 191.973 321.478 191.079 322.372C190.184 323.265 189.122 323.712 187.891 323.712H137.567V334.268H184.201C185.431 334.268 186.494 334.714 187.388 335.608C188.283 336.502 188.73 337.563 188.73 338.791V360.573C188.73 361.802 188.283 362.863 187.388 363.756C186.494 364.65 185.431 365.097 184.201 365.097H137.567V375.652Z" fill="#232322"/>
<path d="M250.682 291.04H287.083C291.109 291.04 293.625 292.883 294.632 296.569L332.04 403.466C332.152 403.801 332.208 404.359 332.208 405.141C332.208 405.811 331.816 406.537 331.033 407.319C330.362 407.989 329.524 408.324 328.517 408.324H297.484C294.129 408.324 291.948 406.928 290.941 404.136L286.915 393.077H250.85L246.824 404.136C245.817 406.928 243.636 408.324 240.281 408.324H209.248C208.241 408.324 207.347 407.989 206.564 407.319C205.893 406.537 205.557 405.811 205.557 405.141C205.557 404.359 205.613 403.801 205.725 403.466L243.133 296.569C244.14 292.883 246.656 291.04 250.682 291.04ZM259.405 360.405H278.36L268.799 329.241L259.405 360.405Z" fill="#232322"/>
<path d="M385.913 335.608V363.756C385.913 372.804 390.051 377.328 398.327 377.328C404.701 377.328 408.895 374.312 410.908 368.28C411.467 366.381 412.138 365.097 412.921 364.426C413.815 363.756 415.213 363.421 417.114 363.421H451.335C452.342 363.421 453.18 363.812 453.851 364.594C454.634 365.264 455.026 366.102 455.026 367.107C455.026 376.825 452.23 384.979 446.638 391.57C436.35 403.856 420.302 410 398.494 410C381.384 410 367.741 406.258 357.564 398.774C347.387 391.179 342.299 379.562 342.299 363.924V335.44C342.299 320.138 347.499 308.632 357.899 300.925C368.3 293.218 381.831 289.364 398.494 289.364C420.302 289.364 436.35 295.508 446.638 307.795C452.23 314.385 455.026 322.539 455.026 332.257C455.026 333.262 454.634 334.156 453.851 334.938C453.18 335.608 452.342 335.943 451.335 335.943H417.114C415.325 335.943 413.983 335.608 413.089 334.938C412.306 334.268 411.579 332.983 410.908 331.084C408.783 325.052 404.589 322.036 398.327 322.036C390.051 322.036 385.913 326.56 385.913 335.608Z" fill="#232322"/>
<path d="M544.615 291.04H577.494C578.724 291.04 579.786 291.487 580.681 292.38C581.576 293.274 582.023 294.335 582.023 295.564V403.801C582.023 405.029 581.576 406.091 580.681 406.984C579.786 407.878 578.724 408.324 577.494 408.324H544.615C543.385 408.324 542.323 407.878 541.428 406.984C540.533 406.091 540.086 405.029 540.086 403.801V367.61H512.911V403.801C512.911 405.029 512.463 406.091 511.569 406.984C510.674 407.878 509.612 408.324 508.381 408.324H475.503C474.273 408.324 473.21 407.934 472.316 407.152C471.421 406.258 470.974 405.141 470.974 403.801V295.564C470.974 294.335 471.421 293.274 472.316 292.38C473.21 291.487 474.273 291.04 475.503 291.04H508.381C509.612 291.04 510.674 291.487 511.569 292.38C512.463 293.274 512.911 294.335 512.911 295.564V330.749H540.086V295.564C540.086 294.335 540.533 293.274 541.428 292.38C542.323 291.487 543.385 291.04 544.615 291.04Z" fill="#232322"/>
<path d="M644.089 375.652H695.755C696.985 375.652 698.048 376.099 698.942 376.993C699.837 377.886 700.284 378.947 700.284 380.176V403.801C700.284 405.029 699.837 406.091 698.942 406.984C698.048 407.878 696.985 408.324 695.755 408.324H608.358C607.128 408.324 606.066 407.878 605.171 406.984C604.276 406.091 603.829 405.029 603.829 403.801V295.564C603.829 294.335 604.276 293.274 605.171 292.38C606.066 291.487 607.128 291.04 608.358 291.04H694.413C695.643 291.04 696.706 291.487 697.6 292.38C698.495 293.274 698.942 294.335 698.942 295.564V319.188C698.942 320.417 698.495 321.478 697.6 322.372C696.706 323.265 695.643 323.712 694.413 323.712H644.089V334.268H690.723C691.953 334.268 693.015 334.714 693.91 335.608C694.805 336.502 695.252 337.563 695.252 338.791V360.573C695.252 361.802 694.805 362.863 693.91 363.756C693.015 364.65 691.953 365.097 690.723 365.097H644.089V375.652Z" fill="#232322"/>
<path d="M828.497 402.795C828.832 403.466 829 404.192 829 404.974C829 405.755 828.609 406.537 827.826 407.319C827.155 407.989 826.316 408.324 825.31 408.324H790.921C787.454 408.324 785.05 406.817 783.708 403.801L769.281 371.799H762.404V403.801C762.404 405.029 761.956 406.091 761.062 406.984C760.167 407.878 759.105 408.324 757.875 408.324H724.996C723.766 408.324 722.703 407.878 721.809 406.984C720.914 406.091 720.467 405.029 720.467 403.801V295.564C720.467 294.335 720.914 293.274 721.809 292.38C722.703 291.487 723.766 291.04 724.996 291.04H774.649C790.753 291.04 803.334 294.67 812.393 301.93C821.451 309.079 825.98 319.411 825.98 332.927C825.98 346.331 819.942 356.887 807.864 364.594L828.497 402.795ZM762.404 322.204V339.964H774.649C777.11 339.964 779.011 339.182 780.353 337.619C781.695 335.943 782.366 333.877 782.366 331.419C782.366 328.962 781.695 326.84 780.353 325.052C779.123 323.153 777.222 322.204 774.649 322.204H762.404Z" fill="#232322"/>
<path d="M405 129.317V98.7841L465.273 11.2568H514.384L456.344 98.7841L434.02 92.0669H544.013V129.317H405ZM478.667 153.743V129.317L480.087 92.0669V70.2869H525.14V153.743H478.667Z" fill="black"/>
<path d="M615.025 157C602.442 157 591.281 154.082 581.54 148.247C571.934 142.412 564.357 133.931 558.81 122.803C553.399 111.676 550.693 98.2413 550.693 82.5C550.693 66.7586 553.399 53.3242 558.81 42.1967C564.357 31.0692 571.934 22.5879 581.54 16.7527C591.281 10.9176 602.442 8 615.025 8C627.607 8 638.701 10.9176 648.307 16.7527C658.048 22.5879 665.624 31.0692 671.036 42.1967C676.583 53.3242 679.356 66.7586 679.356 82.5C679.356 98.2413 676.583 111.676 671.036 122.803C665.624 133.931 658.048 142.412 648.307 148.247C638.701 154.082 627.607 157 615.025 157ZM615.025 118.529C618.136 118.529 620.91 117.443 623.345 115.272C625.78 113.101 627.674 109.369 629.027 104.077C630.516 98.7842 631.26 91.592 631.26 82.5C631.26 73.2723 630.516 66.0801 629.027 60.9235C627.674 55.6311 625.78 51.8994 623.345 49.7281C620.91 47.5569 618.136 46.4713 615.025 46.4713C611.913 46.4713 609.139 47.5569 606.704 49.7281C604.269 51.8994 602.307 55.6311 600.819 60.9235C599.466 66.0801 598.789 73.2723 598.789 82.5C598.789 91.592 599.466 98.7842 600.819 104.077C602.307 109.369 604.269 113.101 606.704 115.272C609.139 117.443 611.913 118.529 615.025 118.529Z" fill="black"/>
<path d="M689.987 129.317V98.7841L750.26 11.2568H799.371L741.33 98.7841L719.007 92.0669H829V129.317H689.987ZM763.654 153.743V129.317L765.074 92.0669V70.2869H810.127V153.743H763.654Z" fill="black"/>
<path d="M415 121.317V90.7841L475.273 3.25682H524.384L466.344 90.7841L444.02 84.0669H554.013V121.317H415ZM488.667 145.743V121.317L490.087 84.0669V62.2869H535.14V145.743H488.667Z" fill="#8D3D52"/>
<path d="M625.025 149C612.442 149 601.281 146.082 591.54 140.247C581.934 134.412 574.357 125.931 568.81 114.803C563.399 103.676 560.693 90.2413 560.693 74.5C560.693 58.7586 563.399 45.3242 568.81 34.1967C574.357 23.0692 581.934 14.5879 591.54 8.75273C601.281 2.91758 612.442 0 625.025 0C637.607 0 648.701 2.91758 658.307 8.75273C668.048 14.5879 675.624 23.0692 681.036 34.1967C686.583 45.3242 689.356 58.7586 689.356 74.5C689.356 90.2413 686.583 103.676 681.036 114.803C675.624 125.931 668.048 134.412 658.307 140.247C648.701 146.082 637.607 149 625.025 149ZM625.025 110.529C628.136 110.529 630.91 109.443 633.345 107.272C635.78 105.101 637.674 101.369 639.027 96.0765C640.516 90.7842 641.26 83.592 641.26 74.5C641.26 65.2723 640.516 58.0801 639.027 52.9235C637.674 47.6311 635.78 43.8994 633.345 41.7281C630.91 39.5569 628.136 38.4713 625.025 38.4713C621.913 38.4713 619.139 39.5569 616.704 41.7281C614.269 43.8994 612.307 47.6311 610.819 52.9235C609.466 58.0801 608.789 65.2723 608.789 74.5C608.789 83.592 609.466 90.7842 610.819 96.0765C612.307 101.369 614.269 105.101 616.704 107.272C619.139 109.443 621.913 110.529 625.025 110.529Z" fill="#8D3D52"/>
<path d="M699.987 121.317V90.7841L760.26 3.25682H809.371L751.33 90.7841L729.007 84.0669H839V121.317H699.987ZM773.654 145.743V121.317L775.074 84.0669V62.2869H820.127V145.743H773.654Z" fill="#8D3D52"/>
<path fill-rule="evenodd" clip-rule="evenodd" d="M14.7589 266.424H48.9796C50.2097 266.424 51.2721 265.976 52.1668 265.082C53.0614 264.187 53.5088 263.125 53.5088 261.895V153.529C53.5088 152.299 53.0614 151.237 52.1668 150.342C51.2721 149.447 50.2097 149 48.9796 149H14.7589C13.5288 149 12.4664 149.447 11.5717 150.342C10.6771 151.237 10.2297 152.299 10.2297 153.529V261.895C10.2297 263.125 10.6771 264.187 11.5717 265.082C12.4664 265.976 13.5288 266.424 14.7589 266.424ZM200.741 149H102.44C101.21 149 100.148 149.447 99.2529 150.342C98.3583 151.237 97.9109 152.299 97.9109 153.529V180.537C97.9109 181.767 98.3583 182.829 99.2529 183.724C100.148 184.619 101.21 185.066 102.44 185.066H130.286V261.895C130.286 263.125 130.734 264.187 131.628 265.082C132.523 265.976 133.585 266.424 134.816 266.424H168.365C169.595 266.424 170.658 265.976 171.552 265.082C172.447 264.187 172.894 263.125 172.894 261.895V185.066H200.741C201.971 185.066 203.033 184.619 203.928 183.724C204.822 182.829 205.27 181.767 205.27 180.537V153.529C205.27 152.299 204.822 151.237 203.928 150.342C203.033 149.447 201.971 149 200.741 149ZM147.796 367.911H199.463C200.693 367.911 201.755 368.359 202.65 369.253C203.545 370.148 203.992 371.21 203.992 372.441V396.093C203.992 397.323 203.545 398.386 202.65 399.28C201.755 400.175 200.693 400.622 199.463 400.622H112.066C110.836 400.622 109.773 400.175 108.879 399.28C107.984 398.386 107.537 397.323 107.537 396.093V287.728C107.537 286.498 107.984 285.435 108.879 284.541C109.773 283.646 110.836 283.199 112.066 283.199H198.121C199.351 283.199 200.413 283.646 201.308 284.541C202.203 285.435 202.65 286.498 202.65 287.728V311.38C202.65 312.61 202.203 313.673 201.308 314.567C200.413 315.462 199.351 315.909 198.121 315.909H147.796V326.478H194.43C195.661 326.478 196.723 326.925 197.618 327.82C198.512 328.714 198.96 329.777 198.96 331.007V352.814C198.96 354.044 198.512 355.107 197.618 356.001C196.723 356.896 195.661 357.343 194.43 357.343H147.796V367.911Z" fill="#8D3D52"/>
<path d="M16.88 537.32C14.7467 537.32 12.7733 536.973 10.96 536.28C9.17333 535.56 7.61333 534.56 6.28 533.28C4.97333 531.973 3.94667 530.453 3.2 528.72C2.45333 526.987 2.08 525.08 2.08 523C2.08 520.92 2.45333 519.013 3.2 517.28C3.94667 515.547 4.98667 514.04 6.32 512.76C7.65333 511.453 9.21333 510.453 11 509.76C12.8133 509.04 14.7867 508.68 16.92 508.68C19.08 508.68 21.0667 509.053 22.88 509.8C24.72 510.52 26.28 511.6 27.56 513.04L24.96 515.56C23.8933 514.44 22.6933 513.613 21.36 513.08C20.0267 512.52 18.6 512.24 17.08 512.24C15.5067 512.24 14.04 512.507 12.68 513.04C11.3467 513.573 10.1867 514.32 9.2 515.28C8.21333 516.24 7.44 517.387 6.88 518.72C6.34667 520.027 6.08 521.453 6.08 523C6.08 524.547 6.34667 525.987 6.88 527.32C7.44 528.627 8.21333 529.76 9.2 530.72C10.1867 531.68 11.3467 532.427 12.68 532.96C14.04 533.493 15.5067 533.76 17.08 533.76C18.6 533.76 20.0267 533.493 21.36 532.96C22.6933 532.4 23.8933 531.547 24.96 530.4L27.56 532.92C26.28 534.36 24.72 535.453 22.88 536.2C21.0667 536.947 19.0667 537.32 16.88 537.32ZM36.045 537V518.16L37.005 519.16H28.285V515.8H47.645V519.16H38.965L39.885 518.16V537H36.045ZM62.8116 537.24C61.0516 537.24 59.4382 536.84 57.9716 536.04C56.5316 535.213 55.3716 534 54.4916 532.4C53.6382 530.8 53.2116 528.8 53.2116 526.4C53.2116 524 53.6249 522 54.4516 520.4C55.3049 518.8 56.4516 517.6 57.8916 516.8C59.3582 516 60.9982 515.6 62.8116 515.6C64.8916 515.6 66.7316 516.053 68.3316 516.96C69.9316 517.867 71.1982 519.133 72.1316 520.76C73.0649 522.36 73.5316 524.24 73.5316 526.4C73.5316 528.56 73.0649 530.453 72.1316 532.08C71.1982 533.707 69.9316 534.973 68.3316 535.88C66.7316 536.787 64.8916 537.24 62.8116 537.24ZM51.5716 544.76V515.8H55.2516V521.52L55.0116 526.44L55.4116 531.36V544.76H51.5716ZM62.4916 533.88C63.8516 533.88 65.0649 533.573 66.1316 532.96C67.2249 532.347 68.0782 531.48 68.6916 530.36C69.3316 529.213 69.6516 527.893 69.6516 526.4C69.6516 524.88 69.3316 523.573 68.6916 522.48C68.0782 521.36 67.2249 520.493 66.1316 519.88C65.0649 519.267 63.8516 518.96 62.4916 518.96C61.1582 518.96 59.9449 519.267 58.8516 519.88C57.7849 520.493 56.9316 521.36 56.2916 522.48C55.6782 523.573 55.3716 524.88 55.3716 526.4C55.3716 527.893 55.6782 529.213 56.2916 530.36C56.9316 531.48 57.7849 532.347 58.8516 532.96C59.9449 533.573 61.1582 533.88 62.4916 533.88ZM91.9153 537V532.52L91.7153 531.68V524.04C91.7153 522.413 91.2353 521.16 90.2753 520.28C89.342 519.373 87.9286 518.92 86.0353 518.92C84.782 518.92 83.5553 519.133 82.3553 519.56C81.1553 519.96 80.142 520.507 79.3153 521.2L77.7153 518.32C78.8086 517.44 80.1153 516.773 81.6353 516.32C83.182 515.84 84.7953 515.6 86.4753 515.6C89.382 515.6 91.622 516.307 93.1953 517.72C94.7686 519.133 95.5553 521.293 95.5553 524.2V537H91.9153ZM84.9553 537.24C83.382 537.24 81.9953 536.973 80.7953 536.44C79.622 535.907 78.7153 535.173 78.0753 534.24C77.4353 533.28 77.1153 532.2 77.1153 531C77.1153 529.853 77.382 528.813 77.9153 527.88C78.4753 526.947 79.3686 526.2 80.5953 525.64C81.8486 525.08 83.5286 524.8 85.6353 524.8H92.3553V527.56H85.7953C83.8753 527.56 82.582 527.88 81.9153 528.52C81.2486 529.16 80.9153 529.933 80.9153 530.84C80.9153 531.88 81.3286 532.72 82.1553 533.36C82.982 533.973 84.1286 534.28 85.5953 534.28C87.0353 534.28 88.2886 533.96 89.3553 533.32C90.4486 532.68 91.2353 531.747 91.7153 530.52L92.4753 533.16C91.9686 534.413 91.0753 535.413 89.7953 536.16C88.5153 536.88 86.902 537.24 84.9553 537.24ZM102.47 537V515.8H106.31V524.8H118.39V515.8H122.23V537H118.39V528.12H106.31V537H102.47ZM129.697 537V515.8H133.537V531.24L146.537 515.8H150.017V537H146.177V521.56L133.217 537H129.697ZM157.47 537V515.8H161.31V533.64H172.91V515.8H176.75V537H157.47ZM176.47 541.92V536.8L177.43 537H172.91V533.64H180.11V541.92H176.47ZM198.087 537V532.52L197.887 531.68V524.04C197.887 522.413 197.407 521.16 196.447 520.28C195.514 519.373 194.101 518.92 192.207 518.92C190.954 518.92 189.727 519.133 188.527 519.56C187.327 519.96 186.314 520.507 185.487 521.2L183.887 518.32C184.981 517.44 186.287 516.773 187.807 516.32C189.354 515.84 190.967 515.6 192.647 515.6C195.554 515.6 197.794 516.307 199.367 517.72C200.941 519.133 201.727 521.293 201.727 524.2V537H198.087ZM191.127 537.24C189.554 537.24 188.167 536.973 186.967 536.44C185.794 535.907 184.887 535.173 184.247 534.24C183.607 533.28 183.287 532.2 183.287 531C183.287 529.853 183.554 528.813 184.087 527.88C184.647 526.947 185.541 526.2 186.767 525.64C188.021 525.08 189.701 524.8 191.807 524.8H198.527V527.56H191.967C190.047 527.56 188.754 527.88 188.087 528.52C187.421 529.16 187.087 529.933 187.087 530.84C187.087 531.88 187.501 532.72 188.327 533.36C189.154 533.973 190.301 534.28 191.767 534.28C193.207 534.28 194.461 533.96 195.527 533.32C196.621 532.68 197.407 531.747 197.887 530.52L198.647 533.16C198.141 534.413 197.247 535.413 195.967 536.16C194.687 536.88 193.074 537.24 191.127 537.24ZM219.384 537V515.8H229.224C231.704 515.8 233.651 516.28 235.064 517.24C236.504 518.173 237.224 519.507 237.224 521.24C237.224 522.973 236.544 524.32 235.184 525.28C233.851 526.213 232.077 526.68 229.864 526.68L230.464 525.64C232.997 525.64 234.877 526.107 236.104 527.04C237.331 527.973 237.944 529.347 237.944 531.16C237.944 533 237.251 534.44 235.864 535.48C234.504 536.493 232.411 537 229.584 537H219.384ZM223.144 534.04H229.304C230.904 534.04 232.104 533.8 232.904 533.32C233.704 532.813 234.104 532.013 234.104 530.92C234.104 529.8 233.731 528.987 232.984 528.48C232.264 527.947 231.117 527.68 229.544 527.68H223.144V534.04ZM223.144 524.92H228.904C230.371 524.92 231.477 524.653 232.224 524.12C232.997 523.56 233.384 522.787 233.384 521.8C233.384 520.787 232.997 520.027 232.224 519.52C231.477 519.013 230.371 518.76 228.904 518.76H223.144V524.92ZM265.937 537.24C264.177 537.24 262.563 536.84 261.097 536.04C259.657 535.213 258.497 534 257.617 532.4C256.763 530.8 256.337 528.8 256.337 526.4C256.337 524 256.75 522 257.577 520.4C258.43 518.8 259.577 517.6 261.017 516.8C262.483 516 264.123 515.6 265.937 515.6C268.017 515.6 269.857 516.053 271.457 516.96C273.057 517.867 274.323 519.133 275.257 520.76C276.19 522.36 276.657 524.24 276.657 526.4C276.657 528.56 276.19 530.453 275.257 532.08C274.323 533.707 273.057 534.973 271.457 535.88C269.857 536.787 268.017 537.24 265.937 537.24ZM254.697 544.76V515.8H258.377V521.52L258.137 526.44L258.537 531.36V544.76H254.697ZM265.617 533.88C266.977 533.88 268.19 533.573 269.257 532.96C270.35 532.347 271.203 531.48 271.817 530.36C272.457 529.213 272.777 527.893 272.777 526.4C272.777 524.88 272.457 523.573 271.817 522.48C271.203 521.36 270.35 520.493 269.257 519.88C268.19 519.267 266.977 518.96 265.617 518.96C264.283 518.96 263.07 519.267 261.977 519.88C260.91 520.493 260.057 521.36 259.417 522.48C258.803 523.573 258.497 524.88 258.497 526.4C258.497 527.893 258.803 529.213 259.417 530.36C260.057 531.48 260.91 532.347 261.977 532.96C263.07 533.573 264.283 533.88 265.617 533.88ZM295.04 537V532.52L294.84 531.68V524.04C294.84 522.413 294.36 521.16 293.4 520.28C292.467 519.373 291.054 518.92 289.16 518.92C287.907 518.92 286.68 519.133 285.48 519.56C284.28 519.96 283.267 520.507 282.44 521.2L280.84 518.32C281.934 517.44 283.24 516.773 284.76 516.32C286.307 515.84 287.92 515.6 289.6 515.6C292.507 515.6 294.747 516.307 296.32 517.72C297.894 519.133 298.68 521.293 298.68 524.2V537H295.04ZM288.08 537.24C286.507 537.24 285.12 536.973 283.92 536.44C282.747 535.907 281.84 535.173 281.2 534.24C280.56 533.28 280.24 532.2 280.24 531C280.24 529.853 280.507 528.813 281.04 527.88C281.6 526.947 282.494 526.2 283.72 525.64C284.974 525.08 286.654 524.8 288.76 524.8H295.48V527.56H288.92C287 527.56 285.707 527.88 285.04 528.52C284.374 529.16 284.04 529.933 284.04 530.84C284.04 531.88 284.454 532.72 285.28 533.36C286.107 533.973 287.254 534.28 288.72 534.28C290.16 534.28 291.414 533.96 292.48 533.32C293.574 532.68 294.36 531.747 294.84 530.52L295.6 533.16C295.094 534.413 294.2 535.413 292.92 536.16C291.64 536.88 290.027 537.24 288.08 537.24ZM311.443 537.28C313.31 537.28 314.963 537.013 316.403 536.48C317.87 535.92 319.03 535.16 319.883 534.2C320.737 533.213 321.163 532.08 321.163 530.8C321.163 529.2 320.483 527.933 319.123 527C317.763 526.067 315.897 525.6 313.523 525.6L313.363 526.52C314.75 526.52 315.977 526.293 317.043 525.84C318.11 525.387 318.963 524.773 319.603 524C320.243 523.2 320.563 522.293 320.563 521.28C320.563 520.08 320.137 519.04 319.283 518.16C318.457 517.28 317.323 516.613 315.883 516.16C314.443 515.68 312.803 515.467 310.963 515.52C309.737 515.547 308.497 515.733 307.243 516.08C306.017 516.4 304.763 516.867 303.483 517.48L304.523 520.48C305.67 519.92 306.79 519.507 307.883 519.24C309.003 518.973 310.097 518.827 311.163 518.8C312.257 518.8 313.203 518.92 314.003 519.16C314.83 519.4 315.47 519.747 315.923 520.2C316.377 520.653 316.603 521.2 316.603 521.84C316.603 522.427 316.403 522.947 316.003 523.4C315.63 523.827 315.097 524.147 314.403 524.36C313.71 524.573 312.897 524.68 311.963 524.68H308.363V527.44H312.203C313.777 527.44 315.003 527.707 315.883 528.24C316.763 528.773 317.203 529.533 317.203 530.52C317.203 531.213 316.963 531.827 316.483 532.36C316.003 532.867 315.31 533.267 314.403 533.56C313.523 533.853 312.47 534 311.243 534C309.91 534 308.59 533.827 307.283 533.48C305.977 533.107 304.817 532.6 303.803 531.96L302.643 534.88C303.843 535.653 305.203 536.253 306.723 536.68C308.27 537.08 309.843 537.28 311.443 537.28ZM338.241 537.24C336.481 537.24 334.868 536.84 333.401 536.04C331.961 535.213 330.801 534 329.921 532.4C329.068 530.8 328.641 528.8 328.641 526.4C328.641 524 329.055 522 329.881 520.4C330.735 518.8 331.881 517.6 333.321 516.8C334.788 516 336.428 515.6 338.241 515.6C340.321 515.6 342.161 516.053 343.761 516.96C345.361 517.867 346.628 519.133 347.561 520.76C348.495 522.36 348.961 524.24 348.961 526.4C348.961 528.56 348.495 530.453 347.561 532.08C346.628 533.707 345.361 534.973 343.761 535.88C342.161 536.787 340.321 537.24 338.241 537.24ZM327.001 544.76V515.8H330.681V521.52L330.441 526.44L330.841 531.36V544.76H327.001ZM337.921 533.88C339.281 533.88 340.495 533.573 341.561 532.96C342.655 532.347 343.508 531.48 344.121 530.36C344.761 529.213 345.081 527.893 345.081 526.4C345.081 524.88 344.761 523.573 344.121 522.48C343.508 521.36 342.655 520.493 341.561 519.88C340.495 519.267 339.281 518.96 337.921 518.96C336.588 518.96 335.375 519.267 334.281 519.88C333.215 520.493 332.361 521.36 331.721 522.48C331.108 523.573 330.801 524.88 330.801 526.4C330.801 527.893 331.108 529.213 331.721 530.36C332.361 531.48 333.215 532.347 334.281 532.96C335.375 533.573 336.588 533.88 337.921 533.88ZM367.345 537V532.52L367.145 531.68V524.04C367.145 522.413 366.665 521.16 365.705 520.28C364.772 519.373 363.358 518.92 361.465 518.92C360.212 518.92 358.985 519.133 357.785 519.56C356.585 519.96 355.572 520.507 354.745 521.2L353.145 518.32C354.238 517.44 355.545 516.773 357.065 516.32C358.612 515.84 360.225 515.6 361.905 515.6C364.812 515.6 367.052 516.307 368.625 517.72C370.198 519.133 370.985 521.293 370.985 524.2V537H367.345ZM360.385 537.24C358.812 537.24 357.425 536.973 356.225 536.44C355.052 535.907 354.145 535.173 353.505 534.24C352.865 533.28 352.545 532.2 352.545 531C352.545 529.853 352.812 528.813 353.345 527.88C353.905 526.947 354.798 526.2 356.025 525.64C357.278 525.08 358.958 524.8 361.065 524.8H367.785V527.56H361.225C359.305 527.56 358.012 527.88 357.345 528.52C356.678 529.16 356.345 529.933 356.345 530.84C356.345 531.88 356.758 532.72 357.585 533.36C358.412 533.973 359.558 534.28 361.025 534.28C362.465 534.28 363.718 533.96 364.785 533.32C365.878 532.68 366.665 531.747 367.145 530.52L367.905 533.16C367.398 534.413 366.505 535.413 365.225 536.16C363.945 536.88 362.332 537.24 360.385 537.24ZM387.7 537.32C385.94 537.32 384.38 537.04 383.02 536.48C381.686 535.92 380.54 535.093 379.58 534C378.62 532.88 377.886 531.48 377.38 529.8C376.9 528.093 376.66 526.093 376.66 523.8C376.66 521.987 376.82 520.36 377.14 518.92C377.46 517.48 377.913 516.2 378.5 515.08C379.113 513.96 379.86 512.987 380.74 512.16C381.646 511.333 382.66 510.653 383.78 510.12C384.926 509.56 386.18 509.133 387.54 508.84L397.22 506.68L397.78 510.24L388.86 512.16C388.326 512.267 387.686 512.427 386.94 512.64C386.193 512.853 385.433 513.187 384.66 513.64C383.886 514.067 383.166 514.667 382.5 515.44C381.833 516.213 381.3 517.227 380.9 518.48C380.5 519.707 380.3 521.227 380.3 523.04C380.3 523.547 380.313 523.933 380.34 524.2C380.366 524.467 380.393 524.733 380.42 525C380.473 525.267 380.513 525.667 380.54 526.2L378.94 524.56C379.366 523.093 380.046 521.813 380.98 520.72C381.913 519.627 383.033 518.787 384.34 518.2C385.673 517.587 387.126 517.28 388.7 517.28C390.673 517.28 392.42 517.707 393.94 518.56C395.486 519.413 396.7 520.587 397.58 522.08C398.46 523.573 398.9 525.28 398.9 527.2C398.9 529.147 398.433 530.893 397.5 532.44C396.593 533.96 395.3 535.16 393.62 536.04C391.94 536.893 389.966 537.32 387.7 537.32ZM388.06 534.12C389.42 534.12 390.62 533.827 391.66 533.24C392.7 532.627 393.513 531.813 394.1 530.8C394.686 529.76 394.98 528.6 394.98 527.32C394.98 526.04 394.686 524.907 394.1 523.92C393.513 522.933 392.7 522.16 391.66 521.6C390.62 521.013 389.393 520.72 387.98 520.72C386.646 520.72 385.446 521 384.38 521.56C383.313 522.093 382.486 522.853 381.9 523.84C381.313 524.8 381.02 525.92 381.02 527.2C381.02 528.48 381.313 529.653 381.9 530.72C382.513 531.76 383.34 532.587 384.38 533.2C385.446 533.813 386.673 534.12 388.06 534.12ZM413.464 537.24C411.331 537.24 409.437 536.773 407.784 535.84C406.131 534.907 404.824 533.627 403.864 532C402.904 530.347 402.424 528.48 402.424 526.4C402.424 524.293 402.904 522.427 403.864 520.8C404.824 519.173 406.131 517.907 407.784 517C409.437 516.067 411.331 515.6 413.464 515.6C415.571 515.6 417.451 516.067 419.104 517C420.784 517.907 422.091 519.173 423.024 520.8C423.984 522.4 424.464 524.267 424.464 526.4C424.464 528.507 423.984 530.373 423.024 532C422.091 533.627 420.784 534.907 419.104 535.84C417.451 536.773 415.571 537.24 413.464 537.24ZM413.464 533.88C414.824 533.88 416.037 533.573 417.104 532.96C418.197 532.347 419.051 531.48 419.664 530.36C420.277 529.213 420.584 527.893 420.584 526.4C420.584 524.88 420.277 523.573 419.664 522.48C419.051 521.36 418.197 520.493 417.104 519.88C416.037 519.267 414.824 518.96 413.464 518.96C412.104 518.96 410.891 519.267 409.824 519.88C408.757 520.493 407.904 521.36 407.264 522.48C406.624 523.573 406.304 524.88 406.304 526.4C406.304 527.893 406.624 529.213 407.264 530.36C407.904 531.48 408.757 532.347 409.824 532.96C410.891 533.573 412.104 533.88 413.464 533.88ZM433.428 537V518.16L434.388 519.16H425.668V515.8H445.028V519.16H436.348L437.268 518.16V537H433.428ZM464.314 537L456.114 526.68L459.274 524.76L468.834 537H464.314ZM448.954 537V515.8H452.794V537H448.954ZM451.634 528.04V524.76H458.634V528.04H451.634ZM459.594 526.84L456.034 526.36L464.154 515.8H468.274L459.594 526.84ZM481.598 537.24C479.331 537.24 477.331 536.773 475.598 535.84C473.891 534.907 472.558 533.627 471.598 532C470.664 530.373 470.198 528.507 470.198 526.4C470.198 524.293 470.651 522.427 471.558 520.8C472.491 519.173 473.758 517.907 475.358 517C476.984 516.067 478.811 515.6 480.838 515.6C482.891 515.6 484.704 516.053 486.278 516.96C487.851 517.867 489.078 519.147 489.958 520.8C490.864 522.427 491.318 524.333 491.318 526.52C491.318 526.68 491.304 526.867 491.278 527.08C491.278 527.293 491.264 527.493 491.238 527.68H473.198V524.92H489.238L487.678 525.88C487.704 524.52 487.424 523.307 486.838 522.24C486.251 521.173 485.438 520.347 484.398 519.76C483.384 519.147 482.198 518.84 480.838 518.84C479.504 518.84 478.318 519.147 477.278 519.76C476.238 520.347 475.424 521.187 474.838 522.28C474.251 523.347 473.958 524.573 473.958 525.96V526.6C473.958 528.013 474.278 529.28 474.918 530.4C475.584 531.493 476.504 532.347 477.678 532.96C478.851 533.573 480.198 533.88 481.718 533.88C482.971 533.88 484.104 533.667 485.118 533.24C486.158 532.813 487.064 532.173 487.838 531.32L489.958 533.8C488.998 534.92 487.798 535.773 486.358 536.36C484.944 536.947 483.358 537.24 481.598 537.24Z" fill="black"/>
</svg>
