<svg width="150" height="46" viewBox="0 0 150 46" fill="none" xmlns="http://www.w3.org/2000/svg">
<path d="M45.7817 24H52.2917C53.0117 24 53.4617 24.33 53.6417 24.99L60.3317 44.13C60.3517 44.19 60.3617 44.29 60.3617 44.43C60.3617 44.55 60.2917 44.68 60.1517 44.82C60.0317 44.94 59.8817 45 59.7017 45H54.1517C53.5517 45 53.1617 44.75 52.9817 44.25L52.2617 42.27H45.8117L45.0917 44.25C44.9117 44.75 44.5217 45 43.9217 45H38.3717C38.1917 45 38.0317 44.94 37.8917 44.82C37.7717 44.68 37.7117 44.55 37.7117 44.43C37.7117 44.29 37.7217 44.19 37.7417 44.13L44.4317 24.99C44.6117 24.33 45.0617 24 45.7817 24ZM47.3417 36.42H50.7317L49.0217 30.84L47.3417 36.42Z" fill="#232322"/>
<path d="M69.9664 31.98V37.02C69.9664 38.64 70.7064 39.45 72.1864 39.45C73.3264 39.45 74.0764 38.91 74.4364 37.83C74.5364 37.49 74.6564 37.26 74.7964 37.14C74.9564 37.02 75.2064 36.96 75.5464 36.96H81.6664C81.8464 36.96 81.9964 37.03 82.1164 37.17C82.2564 37.29 82.3264 37.44 82.3264 37.62C82.3264 39.36 81.8264 40.82 80.8264 42C78.9864 44.2 76.1164 45.3 72.2164 45.3C69.1564 45.3 66.7164 44.63 64.8964 43.29C63.0764 41.93 62.1664 39.85 62.1664 37.05V31.95C62.1664 29.21 63.0964 27.15 64.9564 25.77C66.8164 24.39 69.2364 23.7 72.2164 23.7C76.1164 23.7 78.9864 24.8 80.8264 27C81.8264 28.18 82.3264 29.64 82.3264 31.38C82.3264 31.56 82.2564 31.72 82.1164 31.86C81.9964 31.98 81.8464 32.04 81.6664 32.04H75.5464C75.2264 32.04 74.9864 31.98 74.8264 31.86C74.6864 31.74 74.5564 31.51 74.4364 31.17C74.0564 30.09 73.3064 29.55 72.1864 29.55C70.7064 29.55 69.9664 30.36 69.9664 31.98Z" fill="#232322"/>
<path d="M98.3485 24H104.228C104.448 24 104.638 24.08 104.798 24.24C104.958 24.4 105.038 24.59 105.038 24.81V44.19C105.038 44.41 104.958 44.6 104.798 44.76C104.638 44.92 104.448 45 104.228 45H98.3485C98.1285 45 97.9385 44.92 97.7785 44.76C97.6185 44.6 97.5385 44.41 97.5385 44.19V37.71H92.6785V44.19C92.6785 44.41 92.5985 44.6 92.4385 44.76C92.2785 44.92 92.0885 45 91.8685 45H85.9885C85.7685 45 85.5785 44.93 85.4185 44.79C85.2585 44.63 85.1785 44.43 85.1785 44.19V24.81C85.1785 24.59 85.2585 24.4 85.4185 24.24C85.5785 24.08 85.7685 24 85.9885 24H91.8685C92.0885 24 92.2785 24.08 92.4385 24.24C92.5985 24.4 92.6785 24.59 92.6785 24.81V31.11H97.5385V24.81C97.5385 24.59 97.6185 24.4 97.7785 24.24C97.9385 24.08 98.1285 24 98.3485 24Z" fill="#232322"/>
<path d="M116.138 39.15H125.378C125.598 39.15 125.788 39.23 125.948 39.39C126.108 39.55 126.188 39.74 126.188 39.96V44.19C126.188 44.41 126.108 44.6 125.948 44.76C125.788 44.92 125.598 45 125.378 45H109.748C109.528 45 109.338 44.92 109.178 44.76C109.018 44.6 108.938 44.41 108.938 44.19V24.81C108.938 24.59 109.018 24.4 109.178 24.24C109.338 24.08 109.528 24 109.748 24H125.138C125.358 24 125.548 24.08 125.708 24.24C125.868 24.4 125.948 24.59 125.948 24.81V29.04C125.948 29.26 125.868 29.45 125.708 29.61C125.548 29.77 125.358 29.85 125.138 29.85H116.138V31.74H124.478C124.698 31.74 124.888 31.82 125.048 31.98C125.208 32.14 125.288 32.33 125.288 32.55V36.45C125.288 36.67 125.208 36.86 125.048 37.02C124.888 37.18 124.698 37.26 124.478 37.26H116.138V39.15Z" fill="#232322"/>
<path d="M149.118 44.01C149.178 44.13 149.208 44.26 149.208 44.4C149.208 44.54 149.138 44.68 148.998 44.82C148.878 44.94 148.728 45 148.548 45H142.398C141.778 45 141.348 44.73 141.108 44.19L138.528 38.46H137.298V44.19C137.298 44.41 137.218 44.6 137.058 44.76C136.898 44.92 136.708 45 136.488 45H130.608C130.388 45 130.198 44.92 130.038 44.76C129.878 44.6 129.798 44.41 129.798 44.19V24.81C129.798 24.59 129.878 24.4 130.038 24.24C130.198 24.08 130.388 24 130.608 24H139.488C142.368 24 144.618 24.65 146.238 25.95C147.858 27.23 148.668 29.08 148.668 31.5C148.668 33.9 147.588 35.79 145.428 37.17L149.118 44.01ZM137.298 29.58V32.76H139.488C139.928 32.76 140.268 32.62 140.508 32.34C140.748 32.04 140.868 31.67 140.868 31.23C140.868 30.79 140.748 30.41 140.508 30.09C140.288 29.75 139.948 29.58 139.488 29.58H137.298Z" fill="#232322"/>
<path d="M7.93 21H1.81C1.59 21 1.4 20.92 1.24 20.76C1.08 20.6 1 20.41 1 20.19V0.81C1 0.590001 1.08 0.400001 1.24 0.24C1.4 0.0800002 1.59 0 1.81 0H7.93C8.15 0 8.34 0.0800002 8.5 0.24C8.66 0.400001 8.74 0.590001 8.74 0.81V20.19C8.74 20.41 8.66 20.6 8.5 20.76C8.34 20.92 8.15 21 7.93 21Z" fill="url(#paint0_linear_601_22)"/>
<path d="M17.4909 0H35.0709C35.2909 0 35.4809 0.0800002 35.6409 0.24C35.8009 0.400001 35.8809 0.590001 35.8809 0.81V5.64C35.8809 5.86 35.8009 6.05 35.6409 6.21C35.4809 6.37 35.2909 6.45 35.0709 6.45H30.0909V20.19C30.0909 20.41 30.0109 20.6 29.8509 20.76C29.6909 20.92 29.5009 21 29.2809 21H23.2809C23.0609 21 22.8709 20.92 22.7109 20.76C22.5509 20.6 22.4709 20.41 22.4709 20.19V6.45H17.4909C17.2709 6.45 17.0809 6.37 16.9209 6.21C16.7609 6.05 16.6809 5.86 16.6809 5.64V0.81C16.6809 0.590001 16.7609 0.400001 16.9209 0.24C17.0809 0.0800002 17.2709 0 17.4909 0Z" fill="url(#paint1_linear_601_22)"/>
<path d="M25.6023 39.15H34.8423C35.0623 39.15 35.2523 39.23 35.4123 39.39C35.5723 39.55 35.6523 39.74 35.6523 39.96V44.19C35.6523 44.41 35.5723 44.6 35.4123 44.76C35.2523 44.92 35.0623 45 34.8423 45H19.2123C18.9923 45 18.8023 44.92 18.6423 44.76C18.4823 44.6 18.4023 44.41 18.4023 44.19V24.81C18.4023 24.59 18.4823 24.4 18.6423 24.24C18.8023 24.08 18.9923 24 19.2123 24H34.6023C34.8223 24 35.0123 24.08 35.1723 24.24C35.3323 24.4 35.4123 24.59 35.4123 24.81V29.04C35.4123 29.26 35.3323 29.45 35.1723 29.61C35.0123 29.77 34.8223 29.85 34.6023 29.85H25.6023V31.74H33.9423C34.1623 31.74 34.3523 31.82 34.5123 31.98C34.6723 32.14 34.7523 32.33 34.7523 32.55V36.45C34.7523 36.67 34.6723 36.86 34.5123 37.02C34.3523 37.18 34.1623 37.26 33.9423 37.26H25.6023V39.15Z" fill="url(#paint2_linear_601_22)"/>
<defs>
<linearGradient id="paint0_linear_601_22" x1="1" y1="0" x2="36" y2="45" gradientUnits="userSpaceOnUse">
<stop stop-color="#EE0B46"/>
<stop offset="0.182291" stop-color="#FF7E47"/>
<stop offset="0.359375" stop-color="#E5FF47"/>
<stop offset="0.546875" stop-color="#17CFF7"/>
<stop offset="0.723958" stop-color="#476FFF"/>
<stop offset="0.932291" stop-color="#CE2AF7"/>
</linearGradient>
<linearGradient id="paint1_linear_601_22" x1="1" y1="0" x2="36" y2="45" gradientUnits="userSpaceOnUse">
<stop stop-color="#EE0B46"/>
<stop offset="0.182291" stop-color="#FF7E47"/>
<stop offset="0.359375" stop-color="#E5FF47"/>
<stop offset="0.546875" stop-color="#17CFF7"/>
<stop offset="0.723958" stop-color="#476FFF"/>
<stop offset="0.932291" stop-color="#CE2AF7"/>
</linearGradient>
<linearGradient id="paint2_linear_601_22" x1="1" y1="0" x2="36" y2="45" gradientUnits="userSpaceOnUse">
<stop stop-color="#EE0B46"/>
<stop offset="0.182291" stop-color="#FF7E47"/>
<stop offset="0.359375" stop-color="#E5FF47"/>
<stop offset="0.546875" stop-color="#17CFF7"/>
<stop offset="0.723958" stop-color="#476FFF"/>
<stop offset="0.932291" stop-color="#CE2AF7"/>
</linearGradient>
</defs>
</svg>
