<svg width="168" height="72" viewBox="0 0 168 72" fill="none" xmlns="http://www.w3.org/2000/svg">
<path d="M8.88 33H2.76C2.54 33 2.35 32.92 2.19 32.76C2.03 32.6 1.95 32.41 1.95 32.19V12.81C1.95 12.59 2.03 12.4 2.19 12.24C2.35 12.08 2.54 12 2.76 12H8.88C9.1 12 9.29 12.08 9.45 12.24C9.61 12.4 9.69 12.59 9.69 12.81V32.19C9.69 32.41 9.61 32.6 9.45 32.76C9.29 32.92 9.1 33 8.88 33ZM18.4409 12H36.0209C36.2409 12 36.4309 12.08 36.5909 12.24C36.7509 12.4 36.8309 12.59 36.8309 12.81V17.64C36.8309 17.86 36.7509 18.05 36.5909 18.21C36.4309 18.37 36.2409 18.45 36.0209 18.45H31.0409V32.19C31.0409 32.41 30.9609 32.6 30.8009 32.76C30.6409 32.92 30.4509 33 30.2309 33H24.2309C24.0109 33 23.8209 32.92 23.6609 32.76C23.5009 32.6 23.4209 32.41 23.4209 32.19V18.45H18.4409C18.2209 18.45 18.0309 18.37 17.8709 18.21C17.7109 18.05 17.6309 17.86 17.6309 17.64V12.81C17.6309 12.59 17.7109 12.4 17.8709 12.24C18.0309 12.08 18.2209 12 18.4409 12ZM26.5523 51.15H35.7923C36.0123 51.15 36.2023 51.23 36.3623 51.39C36.5223 51.55 36.6023 51.74 36.6023 51.96V56.19C36.6023 56.41 36.5223 56.6 36.3623 56.76C36.2023 56.92 36.0123 57 35.7923 57H20.1623C19.9423 57 19.7523 56.92 19.5923 56.76C19.4323 56.6 19.3523 56.41 19.3523 56.19V36.81C19.3523 36.59 19.4323 36.4 19.5923 36.24C19.7523 36.08 19.9423 36 20.1623 36H35.5523C35.7723 36 35.9623 36.08 36.1223 36.24C36.2823 36.4 36.3623 36.59 36.3623 36.81V41.04C36.3623 41.26 36.2823 41.45 36.1223 41.61C35.9623 41.77 35.7723 41.85 35.5523 41.85H26.5523V43.74H34.8923C35.1123 43.74 35.3023 43.82 35.4623 43.98C35.6223 44.14 35.7023 44.33 35.7023 44.55V48.45C35.7023 48.67 35.6223 48.86 35.4623 49.02C35.3023 49.18 35.1123 49.26 34.8923 49.26H26.5523V51.15Z" fill="#8D3D52"/>
<path d="M46.7817 36H53.2917C54.0117 36 54.4617 36.33 54.6417 36.99L61.3317 56.13C61.3517 56.19 61.3617 56.29 61.3617 56.43C61.3617 56.55 61.2917 56.68 61.1517 56.82C61.0317 56.94 60.8817 57 60.7017 57H55.1517C54.5517 57 54.1617 56.75 53.9817 56.25L53.2617 54.27H46.8117L46.0917 56.25C45.9117 56.75 45.5217 57 44.9217 57H39.3717C39.1917 57 39.0317 56.94 38.8917 56.82C38.7717 56.68 38.7117 56.55 38.7117 56.43C38.7117 56.29 38.7217 56.19 38.7417 56.13L45.4317 36.99C45.6117 36.33 46.0617 36 46.7817 36ZM48.3417 48.42H51.7317L50.0217 42.84L48.3417 48.42ZM70.9664 43.98V49.02C70.9664 50.64 71.7064 51.45 73.1864 51.45C74.3264 51.45 75.0764 50.91 75.4364 49.83C75.5364 49.49 75.6564 49.26 75.7964 49.14C75.9564 49.02 76.2064 48.96 76.5464 48.96H82.6664C82.8464 48.96 82.9964 49.03 83.1164 49.17C83.2564 49.29 83.3264 49.44 83.3264 49.62C83.3264 51.36 82.8264 52.82 81.8264 54C79.9864 56.2 77.1164 57.3 73.2164 57.3C70.1564 57.3 67.7164 56.63 65.8964 55.29C64.0764 53.93 63.1664 51.85 63.1664 49.05V43.95C63.1664 41.21 64.0964 39.15 65.9564 37.77C67.8164 36.39 70.2364 35.7 73.2164 35.7C77.1164 35.7 79.9864 36.8 81.8264 39C82.8264 40.18 83.3264 41.64 83.3264 43.38C83.3264 43.56 83.2564 43.72 83.1164 43.86C82.9964 43.98 82.8464 44.04 82.6664 44.04H76.5464C76.2264 44.04 75.9864 43.98 75.8264 43.86C75.6864 43.74 75.5564 43.51 75.4364 43.17C75.0564 42.09 74.3064 41.55 73.1864 41.55C71.7064 41.55 70.9664 42.36 70.9664 43.98ZM99.3485 36H105.229C105.449 36 105.639 36.08 105.799 36.24C105.959 36.4 106.039 36.59 106.039 36.81V56.19C106.039 56.41 105.959 56.6 105.799 56.76C105.639 56.92 105.449 57 105.229 57H99.3485C99.1285 57 98.9385 56.92 98.7785 56.76C98.6185 56.6 98.5385 56.41 98.5385 56.19V49.71H93.6785V56.19C93.6785 56.41 93.5985 56.6 93.4385 56.76C93.2785 56.92 93.0885 57 92.8685 57H86.9885C86.7685 57 86.5785 56.93 86.4185 56.79C86.2585 56.63 86.1785 56.43 86.1785 56.19V36.81C86.1785 36.59 86.2585 36.4 86.4185 36.24C86.5785 36.08 86.7685 36 86.9885 36H92.8685C93.0885 36 93.2785 36.08 93.4385 36.24C93.5985 36.4 93.6785 36.59 93.6785 36.81V43.11H98.5385V36.81C98.5385 36.59 98.6185 36.4 98.7785 36.24C98.9385 36.08 99.1285 36 99.3485 36ZM117.138 51.15H126.378C126.598 51.15 126.788 51.23 126.948 51.39C127.108 51.55 127.188 51.74 127.188 51.96V56.19C127.188 56.41 127.108 56.6 126.948 56.76C126.788 56.92 126.598 57 126.378 57H110.748C110.528 57 110.338 56.92 110.178 56.76C110.018 56.6 109.938 56.41 109.938 56.19V36.81C109.938 36.59 110.018 36.4 110.178 36.24C110.338 36.08 110.528 36 110.748 36H126.138C126.358 36 126.548 36.08 126.708 36.24C126.868 36.4 126.948 36.59 126.948 36.81V41.04C126.948 41.26 126.868 41.45 126.708 41.61C126.548 41.77 126.358 41.85 126.138 41.85H117.138V43.74H125.478C125.698 43.74 125.888 43.82 126.048 43.98C126.208 44.14 126.288 44.33 126.288 44.55V48.45C126.288 48.67 126.208 48.86 126.048 49.02C125.888 49.18 125.698 49.26 125.478 49.26H117.138V51.15ZM150.118 56.01C150.178 56.13 150.208 56.26 150.208 56.4C150.208 56.54 150.138 56.68 149.998 56.82C149.878 56.94 149.728 57 149.548 57H143.398C142.778 57 142.348 56.73 142.108 56.19L139.528 50.46H138.298V56.19C138.298 56.41 138.218 56.6 138.058 56.76C137.898 56.92 137.708 57 137.488 57H131.608C131.388 57 131.198 56.92 131.038 56.76C130.878 56.6 130.798 56.41 130.798 56.19V36.81C130.798 36.59 130.878 36.4 131.038 36.24C131.198 36.08 131.388 36 131.608 36H140.488C143.368 36 145.618 36.65 147.238 37.95C148.858 39.23 149.668 41.08 149.668 43.5C149.668 45.9 148.588 47.79 146.428 49.17L150.118 56.01ZM138.298 41.58V44.76H140.488C140.928 44.76 141.268 44.62 141.508 44.34C141.748 44.04 141.868 43.67 141.868 43.23C141.868 42.79 141.748 42.41 141.508 42.09C141.288 41.75 140.948 41.58 140.488 41.58H138.298Z" fill="#232322"/>
</svg>
